<svg id="Layer_1" data-name="Layer 1" xmlns="http://www.w3.org/2000/svg" viewBox="0 0 293.4 35.38"><defs><style>.cls-1{fill:#212021;}</style></defs><title>maeztro</title><path class="cls-1" d="M244.14,35.91,257.93-.53h6.93l-13.8,36.44Z"/><polygon class="cls-1" points="60.66 23.63 60.51 23.63 51.19 0 39.1 0 35.31 0 35.31 4.57 39.1 5.31 39.1 29.56 35.31 30.3 35.31 34.85 50.96 34.85 50.96 30.3 46.72 29.56 46.72 23.03 46.2 8.16 46.38 8.14 57.12 34.61 63.3 34.61 73.86 7.88 74.02 7.9 73.84 23.94 73.84 29.56 69.85 30.3 69.85 34.85 85.5 34.85 85.5 30.3 81.67 29.56 81.67 5.31 85.5 4.57 85.5 0 69.73 0 60.66 23.63"/><path class="cls-1" d="M111.59,28.88c0-.34,0-.7,0-1.06V17.71a8.08,8.08,0,0,0-3.15-6.84q-3.15-2.4-8.54-2.4a20,20,0,0,0-5.55.72A28.49,28.49,0,0,0,89.64,11l.1,6.94h5.71L96,14.58a5.61,5.61,0,0,1,1.51-.68,6.33,6.33,0,0,1,1.86-.26,4,4,0,0,1,3.15,1.14,4.07,4.07,0,0,1,1,2.84v1.72h-3.21A18.66,18.66,0,0,0,93.6,20.4a8.71,8.71,0,0,0-4.07,2.92,7,7,0,0,0-1.36,4.28,7.11,7.11,0,0,0,2.41,5.65A9.36,9.36,0,0,0,97,35.36a8.34,8.34,0,0,0,4-.89,9.82,9.82,0,0,0,2.89-2.39,5.61,5.61,0,0,0,.46,1.48q.33.75.63,1.29h9.6V30.31l-2.84-.44A4.55,4.55,0,0,1,111.59,28.88Zm-8-1a5.16,5.16,0,0,1-1.9,1.43,6,6,0,0,1-2.41.51A3.42,3.42,0,0,1,97,29.08a2.44,2.44,0,0,1-.86-2,2.77,2.77,0,0,1,1.11-2.26,4.94,4.94,0,0,1,3.18-.9h3.16Z"/><path class="cls-1" d="M135.4,9.84a12.83,12.83,0,0,0-6.18-1.37,12.25,12.25,0,0,0-6.63,1.69,11.24,11.24,0,0,0-4.24,4.73,15.61,15.61,0,0,0-1.47,6.92v.91a13.08,13.08,0,0,0,1.61,6.5,11.71,11.71,0,0,0,4.52,4.5,13.82,13.82,0,0,0,6.86,1.64,18.58,18.58,0,0,0,5.8-.84A15.94,15.94,0,0,0,140,32.44l-2-4.7a17.22,17.22,0,0,1-3.43,1.32,14,14,0,0,1-3.53.43,6.51,6.51,0,0,1-3.07-.66A4.86,4.86,0,0,1,126,27a6.21,6.21,0,0,1-.87-2.6l0-.17h15.35V20.2a14.23,14.23,0,0,0-1.3-6.38A9,9,0,0,0,135.4,9.84Zm-2.24,9.53h-7.93l-.1-.12a10.61,10.61,0,0,1,.64-2.65,4.13,4.13,0,0,1,1.34-1.83,3.65,3.65,0,0,1,2.28-.67,3.88,3.88,0,0,1,2.2.55,3.12,3.12,0,0,1,1.19,1.59,7.43,7.43,0,0,1,.38,2.5Z"/><polygon class="cls-1" points="161.52 29.4 155.09 29.4 167.85 13.84 167.85 8.95 145.17 8.95 145.17 18.67 151 18.67 151.9 14.22 158.31 14.22 144.47 30.5 144.47 34.85 168.3 34.85 168.3 24.51 162.74 24.51 161.52 29.4"/><path class="cls-1" d="M186.07,29.17a10.56,10.56,0,0,1-1.1.06,2.45,2.45,0,0,1-1.73-.58,2.53,2.53,0,0,1-.64-1.94V14.31h4.72V9H182.6V2.59h-7.95V9h-3.53v5.36h3.53v12.4q0,4.53,2.12,6.6a8.4,8.4,0,0,0,6.11,2.07,15.84,15.84,0,0,0,2.48-.19c.82-.13,1.61-.3,2.38-.5L187.12,29A9.71,9.71,0,0,1,186.07,29.17Z"/><path class="cls-1" d="M207.93,8.47a5.55,5.55,0,0,0-3.44,1.06,8,8,0,0,0-2.35,3.23l0-.62L201.85,9H190.56v4.57l3.78.75V29.56l-3.31.75v4.54h14.65V30.31l-3.31-.75V17.5a4.79,4.79,0,0,1,1.57-1.35,4.53,4.53,0,0,1,2.27-.4l3.69.17.82-7.06a9.67,9.67,0,0,0-1.46-.29A11.78,11.78,0,0,0,207.93,8.47Z"/><path class="cls-1" d="M232.11,10.15a15.22,15.22,0,0,0-13.92,0,11.43,11.43,0,0,0-4.43,4.66,14.61,14.61,0,0,0-1.55,6.84v.48a14.82,14.82,0,0,0,1.55,6.91,11.12,11.12,0,0,0,4.45,4.64,13.8,13.8,0,0,0,7,1.67,13.45,13.45,0,0,0,6.91-1.68A11.31,11.31,0,0,0,236.54,29a14.72,14.72,0,0,0,1.54-6.88v-.48a14.68,14.68,0,0,0-1.54-6.87A11.38,11.38,0,0,0,232.11,10.15Zm-2,12A13.18,13.18,0,0,1,229.6,26,5.26,5.26,0,0,1,228,28.58a4.17,4.17,0,0,1-2.81.91,4.35,4.35,0,0,1-2.88-.9A5.05,5.05,0,0,1,220.74,26a13.29,13.29,0,0,1-.5-3.9v-.48a12.84,12.84,0,0,1,.5-3.81,5.29,5.29,0,0,1,1.58-2.57,4.84,4.84,0,0,1,5.68,0,5.4,5.4,0,0,1,1.6,2.57,12.83,12.83,0,0,1,.51,3.81Z"/><polygon class="cls-1" points="0.07 21.93 25.32 32.69 25.32 24.72 8.42 18.77 8.42 18.59 25.32 12.53 25.32 4.56 0.07 15.28 0.07 21.93"/><polygon class="cls-1" points="268.07 4.56 268.07 12.53 284.97 18.48 284.97 18.65 268.07 24.72 268.07 32.69 293.32 21.96 293.32 15.31 268.07 4.56"/></svg>